<?xml version="1.0" encoding="UTF-8" standalone="no"?>
<svg width="669px" height="148px" viewBox="0 0 669 148" version="1.1" xmlns="http://www.w3.org/2000/svg" xmlns:xlink="http://www.w3.org/1999/xlink" xmlns:sketch="http://www.bohemiancoding.com/sketch/ns">
    <title>Slice 1</title>
    <description>Created with Sketch (http://www.bohemiancoding.com/sketch)</description>
    <defs></defs>
    <g id="Page-1" stroke="none" stroke-width="1" fill="none" fill-rule="evenodd" sketch:type="MSPage">
        <text id="telepath" sketch:type="MSTextLayer" font-family="AppleMyungjo" font-size="144" font-weight="normal" fill="#FFFFFF">
            <tspan x="149" y="116">telepath</tspan>
        </text>
        <g id="Flaticon_9821" sketch:type="MSLayerGroup" fill="#FFFFFF">
            <path d="M111.613045,74.9165693 C107.488156,74.9165693 103.83842,76.8465529 101.380013,79.8072447 L85.6930366,71.9558775 C85.8927391,70.9320869 86.0098061,69.8737088 86.0098061,68.7876607 C86.0098061,63.2467399 83.2277435,58.3560645 78.9995593,55.4022903 L89.0260026,26.8883384 C96.3874504,26.8745034 102.385412,20.8424398 102.385412,13.447628 C102.385412,6.04589857 96.3736778,0 89.0053438,0 C81.6370097,0 75.6183892,6.03898107 75.6183892,13.4407104 C75.6183892,18.5043234 78.4624284,22.876186 82.5942045,25.1658799 L72.8845306,52.7874737 C71.8722455,52.5868661 70.8324152,52.4692685 69.771926,52.4692685 C61.1984905,52.4692685 54.2157889,59.22767 53.6442265,67.6877775 L26.0852799,74.1694789 C24.3774791,68.7254031 19.3573711,64.7270858 13.3800683,64.7270858 C6.00484795,64.7270858 0,70.7660668 0,78.1747137 C0,85.5833606 6.01173424,91.6154242 13.3800683,91.6154242 C19.8118665,91.6154242 25.2107206,87.0083664 26.4777986,80.9140453 L54.5669899,74.3009114 C56.7843764,80.415985 62.5,84.8293527 69.2898854,85.0368778 L70.9632547,122.80645 C66.8039335,125.089226 63.9323491,129.474924 63.9323491,134.55929 C63.9323491,141.961019 69.9440833,148 77.3193037,148 C84.6876377,148 90.699372,141.961019 90.699372,134.55929 C90.699372,127.316663 84.9355443,121.422949 77.7875716,121.167002 L76.1348612,83.777892 C78.9513552,82.5673288 81.3477854,80.5681701 83.0831313,78.0709512 L98.4946562,85.7908857 C98.3362715,86.6209862 98.2329771,87.4787567 98.2329771,88.3503622 C98.2329771,95.7520916 104.244711,101.791073 111.619932,101.791073 C118.988266,101.791073 125,95.7520916 125,88.3503622 C125,80.9486329 118.981379,74.9165693 111.613045,74.9165693 L111.613045,74.9165693 Z" id="Shape" sketch:type="MSShapeGroup"></path>
        </g>
    </g>
</svg>